<?xml version="1.0" encoding="UTF-8"?>
<svg width="13px" height="14px" viewBox="0 0 13 14" version="1.1" xmlns="http://www.w3.org/2000/svg" xmlns:xlink="http://www.w3.org/1999/xlink">
    <title>Combined Shape</title>
    <g id="Navigation" stroke="none" stroke-width="1" fill="none" fill-rule="evenodd">
        <g id="Project-details-carousel" transform="translate(-828.000000, -1214.000000)" fill="#3B44C6">
            <path d="M834.321432,1215.25 C834.735645,1215.25 835.071432,1215.58578 835.071432,1216 L835.071428,1224.478 L839.228597,1220.46076 C839.499338,1220.19904 839.916352,1220.1819 840.206229,1220.4047 L840.289105,1220.47873 C840.550821,1220.74947 840.567962,1221.16649 840.345163,1221.45636 L840.27113,1221.53924 L834.913987,1226.71781 C834.656032,1226.96717 834.263079,1226.99569 833.974211,1226.80105 L833.882105,1226.72791 L828.310816,1221.54933 C828.007425,1221.26733 827.990089,1220.79277 828.272094,1220.48938 C828.528462,1220.21357 828.943964,1220.17417 829.245333,1220.38116 L829.332047,1220.45066 L833.571428,1224.39 L833.571432,1216 C833.571432,1215.58578 833.907218,1215.25 834.321432,1215.25 Z" id="Combined-Shape" transform="translate(834.285646, 1221.089283) scale(1, -1) rotate(90.000000) translate(-834.285646, -1221.089283) "></path>
        </g>
    </g>
</svg>