<?xml version="1.0" encoding="UTF-8"?>
<svg width="25px" height="30px" viewBox="0 0 25 30" version="1.1" xmlns="http://www.w3.org/2000/svg" xmlns:xlink="http://www.w3.org/1999/xlink">
    <title>noun_CV_2428474</title>
    <g id="Navigation" stroke="none" stroke-width="1" fill="none" fill-rule="evenodd">
        <g id="Home" transform="translate(-340.000000, -491.000000)" fill="#3B44C6" fill-rule="nonzero">
            <g id="noun_CV_2428474" transform="translate(340.000000, 491.000000)">
                <g id="Group">
                    <path d="M24.375,3.5625 C24.375,1.59375 22.78125,0 20.8125,0 L3.5625,0 C1.59375,0 0,1.59375 0,3.5625 L0,26.4375 C0,28.40625 1.59375,30 3.5625,30 L20.8125,30 C22.78125,30 24.375,28.40625 24.375,26.4375 L24.375,3.5625 Z M22.5,26.4375 C22.5,27.375 21.75,28.125 20.8125,28.125 L3.5625,28.125 C2.625,28.125 1.875,27.375 1.875,26.4375 L1.875,3.5625 C1.875,2.625 2.625,1.875 3.5625,1.875 L20.8125,1.875 C21.75,1.875 22.5,2.625 22.5,3.5625 L22.5,26.4375 Z" id="Shape"></path>
                    <path d="M6.46875,16.875 L17.53125,16.875 C17.8125,16.875 18.09375,16.78125 18.28125,16.5 C18.46875,16.3125 18.5625,16.03125 18.46875,15.75 C18.09375,13.5 16.6875,11.71875 14.8125,10.875 C15.375,10.21875 15.75,9.375 15.75,8.34375 C15.75,6.28125 14.0625,4.59375 12,4.59375 C9.9375,4.59375 8.25,6.28125 8.25,8.34375 C8.25,9.28125 8.625,10.125 9.1875,10.875 C7.3125,11.8125 5.8125,13.59375 5.53125,15.75 C5.53125,16.03125 5.53125,16.3125 5.71875,16.5 C5.90625,16.78125 6.1875,16.875 6.46875,16.875 Z M10.125,8.4375 C10.125,7.40625 10.96875,6.5625 12,6.5625 C13.03125,6.5625 13.875,7.40625 13.875,8.4375 C13.875,9.46875 13.03125,10.3125 12,10.3125 C10.96875,10.3125 10.125,9.46875 10.125,8.4375 Z M12,12.1875 C13.875,12.1875 15.5625,13.3125 16.3125,15 L7.6875,15 C8.4375,13.3125 10.125,12.1875 12,12.1875 Z" id="Shape"></path>
                    <path d="M19.6875,19.6875 L4.6875,19.6875 C4.125,19.6875 3.75,20.0625 3.75,20.625 C3.75,21.1875 4.125,21.5625 4.6875,21.5625 L19.6875,21.5625 C20.25,21.5625 20.625,21.1875 20.625,20.625 C20.625,20.0625 20.25,19.6875 19.6875,19.6875 Z" id="Path"></path>
                    <path d="M19.6875,23.4375 L4.6875,23.4375 C4.125,23.4375 3.75,23.8125 3.75,24.375 C3.75,24.9375 4.125,25.3125 4.6875,25.3125 L19.6875,25.3125 C20.25,25.3125 20.625,24.9375 20.625,24.375 C20.625,23.8125 20.25,23.4375 19.6875,23.4375 Z" id="Path"></path>
                </g>
            </g>
        </g>
    </g>
</svg>