<?xml version="1.0" encoding="UTF-8"?>
<svg width="39px" height="28px" viewBox="0 0 39 28" version="1.1" xmlns="http://www.w3.org/2000/svg" xmlns:xlink="http://www.w3.org/1999/xlink">
    <title>Shape</title>
    <g id="Navigation" stroke="none" stroke-width="1" fill="none" fill-rule="evenodd">
        <g id="Home" transform="translate(-270.000000, -493.000000)" fill="#3B44C6" fill-rule="nonzero">
            <path d="M274.064515,493 C271.836204,493 270,494.836203 270,497.064515 L270,516.935485 C270,519.163788 271.836204,521 274.064515,521 L304.774183,521 C307.002495,521 308.838697,519.163788 308.838697,516.935485 L308.838697,497.064515 C308.838697,494.836203 307.002495,493 304.774183,493 L274.064515,493 L274.064515,493 Z M274.600805,495.709677 L304.22378,495.709677 L290.3508,509.737907 C289.811457,510.282913 288.997506,510.282371 288.459672,509.737907 L274.600805,495.709677 Z M306.129021,497.629031 L306.129021,516.497963 L296.405234,507.465708 L306.129021,497.629031 Z M272.709677,497.643121 L282.433464,507.479798 L272.709677,516.497963 L272.709677,497.643121 L272.709677,497.643121 Z M284.324592,509.399152 L286.540317,511.643126 C288.106185,513.228332 290.703889,513.225938 292.270154,511.643126 L294.499992,509.399152 L304.082651,518.290323 L274.756047,518.290323 L284.324592,509.399152 L284.324592,509.399152 Z" id="Shape"></path>
        </g>
    </g>
</svg>