<svg id="Layer_1" data-name="Layer 1" xmlns="http://www.w3.org/2000/svg" viewBox="0 0 248.38 131.07"><defs><style>.cls-1{fill:#313638;}.cls-2{fill:#3e566f;}</style></defs><path class="cls-1" d="M137.83,145.36a24.26,24.26,0,0,1-1,7.06,14.77,14.77,0,0,1-2.9,5.4,12.71,12.71,0,0,1-4.85,3.48,17.5,17.5,0,0,1-6.78,1.21,28.48,28.48,0,0,1-3.47-.21,30.56,30.56,0,0,1-3.6-.65c.08-.94.17-1.88.25-2.82s.17-1.87.26-2.81a1.91,1.91,0,0,1,.61-1.24,2.16,2.16,0,0,1,1.47-.46,6.38,6.38,0,0,1,1.39.19,9.58,9.58,0,0,0,2.1.19,8.5,8.5,0,0,0,3-.48,4.91,4.91,0,0,0,2.15-1.56,7.32,7.32,0,0,0,1.29-2.84,17.7,17.7,0,0,0,.44-4.24v-30h9.6Z" transform="translate(-115.27 -114.29)"/><path class="cls-1" d="M159.75,128.5a18.47,18.47,0,0,1,6.75,1.18,14.81,14.81,0,0,1,5.21,3.38,14.65,14.65,0,0,1,3.36,5.32,21.66,21.66,0,0,1,0,14.16,14.61,14.61,0,0,1-8.57,8.76,20,20,0,0,1-13.55,0,14.7,14.7,0,0,1-5.24-3.4,15.16,15.16,0,0,1-3.37-5.36,21.49,21.49,0,0,1,0-14.16,14.58,14.58,0,0,1,8.61-8.7A18.63,18.63,0,0,1,159.75,128.5Zm0,27.36a6.38,6.38,0,0,0,5.6-2.61q1.82-2.61,1.82-7.76t-1.82-7.73a6.38,6.38,0,0,0-5.6-2.61,6.48,6.48,0,0,0-5.7,2.61c-1.22,1.74-1.82,4.32-1.82,7.73s.6,6,1.82,7.76A6.48,6.48,0,0,0,159.75,155.86Z" transform="translate(-115.27 -114.29)"/><path class="cls-1" d="M190.66,132.24a19.81,19.81,0,0,1,1.93-1.52,13.18,13.18,0,0,1,2.15-1.18,12.54,12.54,0,0,1,2.43-.77,13.72,13.72,0,0,1,2.8-.27,11.76,11.76,0,0,1,4.77.92,9.87,9.87,0,0,1,3.5,2.6,11.14,11.14,0,0,1,2.15,4,17,17,0,0,1,.72,5.06v21h-8.8V141a6.46,6.46,0,0,0-1.28-4.27,4.66,4.66,0,0,0-3.78-1.52,7.87,7.87,0,0,0-3.49.8,11.87,11.87,0,0,0-3.1,2.24V162h-8.83V114.29h8.83Z" transform="translate(-115.27 -114.29)"/><path class="cls-1" d="M226.31,132.85a20,20,0,0,1,2.06-1.76,14.17,14.17,0,0,1,2.27-1.38,12.55,12.55,0,0,1,2.59-.89,13.16,13.16,0,0,1,3-.32,11.76,11.76,0,0,1,4.77.92,9.87,9.87,0,0,1,3.5,2.6,11.12,11.12,0,0,1,2.14,4,17,17,0,0,1,.72,5.06v21h-8.8V141a6.4,6.4,0,0,0-1.28-4.27,4.63,4.63,0,0,0-3.77-1.52,7.87,7.87,0,0,0-3.49.8,11.87,11.87,0,0,0-3.1,2.24V162h-8.84V129h5.44a2.14,2.14,0,0,1,2.21,1.53Z" transform="translate(-115.27 -114.29)"/><path class="cls-1" d="M170.66,169.57V216h-8.48V187.49c0-.6,0-1.24,0-1.92s.09-1.38.17-2.08l-13.28,25.18a3.55,3.55,0,0,1-3.36,2.08h-1.34a3.68,3.68,0,0,1-2-.53,3.72,3.72,0,0,1-1.37-1.55l-13.35-25.28c.07.75.12,1.47.16,2.16s.07,1.34.07,1.94V216h-8.48V169.57h7.29c.41,0,.77,0,1.09,0a2.66,2.66,0,0,1,.85.18,1.82,1.82,0,0,1,.67.44,3.5,3.5,0,0,1,.59.85l13,24.77c.4.75.78,1.51,1.13,2.3s.69,1.6,1,2.44c.32-.86.66-1.69,1-2.5s.73-1.59,1.13-2.34l12.9-24.67a3.52,3.52,0,0,1,.61-.85,2,2,0,0,1,.69-.44,2.6,2.6,0,0,1,.83-.18c.31,0,.68,0,1.1,0Z" transform="translate(-115.27 -114.29)"/><path class="cls-1" d="M177.63,187.58a19.92,19.92,0,0,1,6.44-3.92,21.91,21.91,0,0,1,7.61-1.29,13.68,13.68,0,0,1,5.27,1,11.23,11.23,0,0,1,3.93,2.67,11.56,11.56,0,0,1,2.48,4.08,14.94,14.94,0,0,1,.87,5.18V216h-4a4.18,4.18,0,0,1-1.9-.35,2.64,2.64,0,0,1-1.07-1.47l-.71-2.12A28.85,28.85,0,0,1,194.1,214a14.44,14.44,0,0,1-2.42,1.4,12.61,12.61,0,0,1-2.67.84,15.52,15.52,0,0,1-3.18.29,13,13,0,0,1-4-.57,8.62,8.62,0,0,1-3.09-1.72,7.54,7.54,0,0,1-2-2.83,10.09,10.09,0,0,1-.7-3.9,8.09,8.09,0,0,1,.92-3.65,8.9,8.9,0,0,1,3.19-3.31,20.22,20.22,0,0,1,6-2.47,42.47,42.47,0,0,1,9.43-1.1v-1.7a6.69,6.69,0,0,0-1.31-4.56,4.84,4.84,0,0,0-3.78-1.45,9.11,9.11,0,0,0-3,.43,15.41,15.41,0,0,0-2.13.93l-1.71.93a3.93,3.93,0,0,1-1.86.43,2.55,2.55,0,0,1-1.55-.47,4.35,4.35,0,0,1-1-1.1Zm18,14.63a39.52,39.52,0,0,0-5.38.56,13.06,13.06,0,0,0-3.41,1,4.44,4.44,0,0,0-1.79,1.45,3.25,3.25,0,0,0-.53,1.78,3.16,3.16,0,0,0,1.08,2.72,4.92,4.92,0,0,0,3,.8,8.68,8.68,0,0,0,3.82-.78,11.71,11.71,0,0,0,3.22-2.45Z" transform="translate(-115.27 -114.29)"/><path class="cls-1" d="M219.43,188.45A14.77,14.77,0,0,1,223,184a7.48,7.48,0,0,1,4.8-1.63,5.94,5.94,0,0,1,3.65,1l-.58,6.53a1.45,1.45,0,0,1-.49.88,1.56,1.56,0,0,1-.91.24,11.57,11.57,0,0,1-1.48-.14,11.57,11.57,0,0,0-1.79-.15,6,6,0,0,0-2.16.36,5.25,5.25,0,0,0-1.68,1,7.4,7.4,0,0,0-1.33,1.57,14.79,14.79,0,0,0-1.1,2.11V216h-8.83V183h5.21a2.74,2.74,0,0,1,1.86.48,3,3,0,0,1,.74,1.66Z" transform="translate(-115.27 -114.29)"/><path class="cls-1" d="M255.71,189.79a2.66,2.66,0,0,1-.71.79,1.86,1.86,0,0,1-1,.24,3.12,3.12,0,0,1-1.32-.32q-.66-.33-1.5-.69a14.75,14.75,0,0,0-1.9-.69,8.83,8.83,0,0,0-2.48-.32,5.47,5.47,0,0,0-3.33.88,2.76,2.76,0,0,0-1.19,2.32,2.24,2.24,0,0,0,.68,1.66,5.8,5.8,0,0,0,1.77,1.17,23,23,0,0,0,2.51.93c.94.29,1.91.6,2.9.94a29.4,29.4,0,0,1,2.9,1.19,10.59,10.59,0,0,1,2.51,1.68,7.62,7.62,0,0,1,1.77,2.43,8,8,0,0,1,.68,3.44,11.12,11.12,0,0,1-.88,4.43,9.71,9.71,0,0,1-2.58,3.51,12.11,12.11,0,0,1-4.22,2.3,19.34,19.34,0,0,1-12.36-.34,19.54,19.54,0,0,1-2.81-1.29,12.64,12.64,0,0,1-2.27-1.6l2-3.3a2.68,2.68,0,0,1,.88-.89,2.56,2.56,0,0,1,1.36-.32,2.81,2.81,0,0,1,1.48.4l1.5.86a12.22,12.22,0,0,0,2,.86,8.53,8.53,0,0,0,2.83.4,7.61,7.61,0,0,0,2.21-.28,4.25,4.25,0,0,0,1.5-.79,3,3,0,0,0,.85-1.12,3.21,3.21,0,0,0,.27-1.29,2.4,2.4,0,0,0-.69-1.78,6,6,0,0,0-1.79-1.2,18,18,0,0,0-2.54-.93c-1-.28-1.94-.58-2.93-.93a24.48,24.48,0,0,1-2.91-1.21,9.87,9.87,0,0,1-2.53-1.78,8.1,8.1,0,0,1-1.79-2.64,9.4,9.4,0,0,1-.69-3.81,9.66,9.66,0,0,1,.8-3.88,9.08,9.08,0,0,1,2.4-3.25,11.87,11.87,0,0,1,4-2.24,16.6,16.6,0,0,1,5.52-.83,17.13,17.13,0,0,1,6.41,1.15,13.88,13.88,0,0,1,4.73,3Z" transform="translate(-115.27 -114.29)"/><path class="cls-1" d="M292.74,168.29V216H287.3a2.06,2.06,0,0,1-2.18-1.54l-.73-2.88a19.6,19.6,0,0,1-2.1,2,13.89,13.89,0,0,1-2.38,1.55,12.61,12.61,0,0,1-2.76,1,14,14,0,0,1-3.2.35,10.53,10.53,0,0,1-4.86-1.12,10.92,10.92,0,0,1-3.82-3.28,16.11,16.11,0,0,1-2.52-5.3,26.41,26.41,0,0,1-.89-7.16,22.2,22.2,0,0,1,1-6.85,16.54,16.54,0,0,1,2.86-5.47,13.42,13.42,0,0,1,4.48-3.62,12.89,12.89,0,0,1,5.82-1.31,11.24,11.24,0,0,1,4.53.8,12.19,12.19,0,0,1,3.35,2.17V168.29Zm-8.83,23.29a7.07,7.07,0,0,0-2.71-2,8.2,8.2,0,0,0-3.09-.58,6.8,6.8,0,0,0-2.91.61,5.89,5.89,0,0,0-2.25,1.9,9.6,9.6,0,0,0-1.46,3.32,19.72,19.72,0,0,0-.51,4.8,23,23,0,0,0,.41,4.67,9.2,9.2,0,0,0,1.2,3.1,4.7,4.7,0,0,0,1.91,1.71,5.64,5.64,0,0,0,2.49.53,7.61,7.61,0,0,0,3.92-.93,11.3,11.3,0,0,0,3-2.62Z" transform="translate(-115.27 -114.29)"/><path class="cls-1" d="M307.11,200.86q.4,4.65,2.64,6.79a8,8,0,0,0,5.8,2.14,10.23,10.23,0,0,0,3.16-.43,15.61,15.61,0,0,0,2.33-1l1.83-1a3.38,3.38,0,0,1,1.61-.43,1.87,1.87,0,0,1,1.6.77l2.56,3.2a14,14,0,0,1-3.1,2.7,16.76,16.76,0,0,1-3.52,1.7,19.24,19.24,0,0,1-3.68.86,28,28,0,0,1-3.59.24,17.91,17.91,0,0,1-6.44-1.14,14.38,14.38,0,0,1-5.22-3.36,15.68,15.68,0,0,1-3.5-5.52,20.84,20.84,0,0,1-1.28-7.64,18,18,0,0,1,1.1-6.34,14.89,14.89,0,0,1,8.24-8.69,16.71,16.71,0,0,1,6.72-1.29,16.46,16.46,0,0,1,5.84,1,13.07,13.07,0,0,1,4.61,2.93,13.32,13.32,0,0,1,3,4.72,17.91,17.91,0,0,1,1.07,6.39,10.49,10.49,0,0,1-.1,1.63,2.72,2.72,0,0,1-.32,1,1.16,1.16,0,0,1-.61.53,2.74,2.74,0,0,1-1,.14ZM321,195.62a9.44,9.44,0,0,0-.36-2.63,6.26,6.26,0,0,0-1.17-2.21,5.82,5.82,0,0,0-2-1.52,7,7,0,0,0-2.91-.56,6.68,6.68,0,0,0-5,1.8,9.16,9.16,0,0,0-2.34,5.12Z" transform="translate(-115.27 -114.29)"/><path class="cls-1" d="M342.56,186.85a20.08,20.08,0,0,1,2.07-1.76,14.17,14.17,0,0,1,2.27-1.38,12.35,12.35,0,0,1,2.59-.89,13.14,13.14,0,0,1,3-.32,11.73,11.73,0,0,1,4.77.92,9.82,9.82,0,0,1,3.51,2.6,11.28,11.28,0,0,1,2.14,4,17,17,0,0,1,.72,5.06v21h-8.8V195a6.46,6.46,0,0,0-1.28-4.27,4.63,4.63,0,0,0-3.78-1.52,7.83,7.83,0,0,0-3.48.8,11.92,11.92,0,0,0-3.11,2.24V216h-8.83V183h5.44a2.15,2.15,0,0,1,2.21,1.53Z" transform="translate(-115.27 -114.29)"/><path class="cls-2" d="M127.82,234.55,138,229.29v1.52l-8.6,4.31v0l8.6,4.31V241l-10.21-5.26Z" transform="translate(-115.27 -114.29)"/><path class="cls-2" d="M145.82,226.17h8v1.61h-6.08v4.92h5.61v1.59h-5.61V241h-1.91Z" transform="translate(-115.27 -114.29)"/><path class="cls-2" d="M164.61,238.1c0,1.1,0,2.06.09,2.9H163l-.11-1.74h0a4,4,0,0,1-3.52,2c-1.68,0-3.68-.92-3.68-4.66v-6.23h1.94v5.9c0,2,.61,3.39,2.37,3.39a2.7,2.7,0,0,0,2.73-2.75v-6.54h1.94Z" transform="translate(-115.27 -114.29)"/><path class="cls-2" d="M167.82,225.38h1.93V241h-1.93Z" transform="translate(-115.27 -114.29)"/><path class="cls-2" d="M173,225.38H175V241H173Z" transform="translate(-115.27 -114.29)"/><path class="cls-2" d="M182.67,238.67a6.76,6.76,0,0,0,3.43,1c2,0,3.1-1,3.1-2.53s-.79-2.18-2.79-3c-2.42-.86-3.92-2.12-3.92-4.21,0-2.31,1.92-4,4.8-4a6.8,6.8,0,0,1,3.28.72l-.53,1.57a5.84,5.84,0,0,0-2.82-.71c-2,0-2.79,1.21-2.79,2.22,0,1.39.9,2.07,2.95,2.86,2.51,1,3.78,2.18,3.78,4.36s-1.69,4.27-5.19,4.27a7.69,7.69,0,0,1-3.79-.95Z" transform="translate(-115.27 -114.29)"/><path class="cls-2" d="M196,227.29v3.06h2.77v1.47H196v5.75c0,1.32.37,2.07,1.45,2.07a4,4,0,0,0,1.12-.14l.09,1.46a4.84,4.84,0,0,1-1.72.26,2.72,2.72,0,0,1-2.09-.81,4,4,0,0,1-.74-2.78v-5.81h-1.65v-1.47h1.65V227.8Z" transform="translate(-115.27 -114.29)"/><path class="cls-2" d="M206.82,241l-.15-1.34h-.07a4,4,0,0,1-3.25,1.58,3,3,0,0,1-3.26-3.06c0-2.57,2.29-4,6.4-4V234a2.19,2.19,0,0,0-2.42-2.46,5.34,5.34,0,0,0-2.77.79l-.44-1.28a6.64,6.64,0,0,1,3.5-.94c3.26,0,4,2.22,4,4.35v4a15.28,15.28,0,0,0,.17,2.55Zm-.28-5.43c-2.11,0-4.51.33-4.51,2.39a1.71,1.71,0,0,0,1.82,1.85,2.66,2.66,0,0,0,2.58-1.78,2.25,2.25,0,0,0,.11-.62Z" transform="translate(-115.27 -114.29)"/><path class="cls-2" d="M219.12,240.6a7,7,0,0,1-3.06.62,5.06,5.06,0,0,1-5.3-5.43,5.42,5.42,0,0,1,5.72-5.66,6.55,6.55,0,0,1,2.69.55l-.44,1.5a4.43,4.43,0,0,0-2.25-.51c-2.44,0-3.76,1.81-3.76,4a3.65,3.65,0,0,0,3.7,4,5.49,5.49,0,0,0,2.37-.53Z" transform="translate(-115.27 -114.29)"/><path class="cls-2" d="M223.3,235.24h0c.26-.38.63-.84.94-1.22l3.13-3.67h2.33l-4.12,4.38,4.69,6.27H228l-3.68-5.1-1,1.1v4h-1.91V225.38h1.91Z" transform="translate(-115.27 -114.29)"/><path class="cls-2" d="M236.44,226.37a26.78,26.78,0,0,1,4.07-.31c2.75,0,4.7.64,6,1.85a6.82,6.82,0,0,1,2.09,5.32,7.89,7.89,0,0,1-2.13,5.77c-1.39,1.38-3.68,2.13-6.56,2.13a30.88,30.88,0,0,1-3.47-.17Zm1.91,13.11a11.87,11.87,0,0,0,1.94.11c4.09,0,6.31-2.29,6.31-6.29,0-3.5-2-5.72-6-5.72a10.83,10.83,0,0,0-2.24.2Z" transform="translate(-115.27 -114.29)"/><path class="cls-2" d="M252.19,236a3.4,3.4,0,0,0,3.65,3.69,7,7,0,0,0,3-.55l.33,1.39a8.59,8.59,0,0,1-3.54.66c-3.28,0-5.24-2.16-5.24-5.37s1.89-5.74,5-5.74c3.48,0,4.4,3.06,4.4,5a8.16,8.16,0,0,1-.06.91Zm5.67-1.39c0-1.23-.5-3.15-2.68-3.15-2,0-2.82,1.81-3,3.15Z" transform="translate(-115.27 -114.29)"/><path class="cls-2" d="M262.88,230.35l2.09,6a27.17,27.17,0,0,1,.86,2.72h.06c.25-.88.55-1.76.91-2.72l2.06-6h2L266.71,241h-1.85l-4.05-10.65Z" transform="translate(-115.27 -114.29)"/><path class="cls-2" d="M273.57,236a3.41,3.41,0,0,0,3.65,3.69,7,7,0,0,0,2.95-.55l.33,1.39a8.59,8.59,0,0,1-3.54.66c-3.28,0-5.24-2.16-5.24-5.37s1.9-5.74,5-5.74c3.47,0,4.4,3.06,4.4,5a7.67,7.67,0,0,1-.07.91Zm5.68-1.39c0-1.23-.51-3.15-2.69-3.15-1.95,0-2.81,1.81-3,3.15Z" transform="translate(-115.27 -114.29)"/><path class="cls-2" d="M283.51,225.38h1.94V241h-1.94Z" transform="translate(-115.27 -114.29)"/><path class="cls-2" d="M298.34,235.59c0,3.94-2.72,5.65-5.3,5.65-2.88,0-5.1-2.11-5.1-5.48,0-3.56,2.33-5.65,5.28-5.65S298.34,232.33,298.34,235.59Zm-8.45.11c0,2.33,1.35,4.09,3.24,4.09s3.23-1.74,3.23-4.14c0-1.8-.9-4.09-3.19-4.09S289.89,233.67,289.89,235.7Z" transform="translate(-115.27 -114.29)"/><path class="cls-2" d="M300.79,233.83c0-1.37-.05-2.47-.09-3.48h1.73l.09,1.83h.05a4.17,4.17,0,0,1,3.78-2.07c2.58,0,4.51,2.18,4.51,5.41,0,3.83-2.33,5.72-4.84,5.72a3.73,3.73,0,0,1-3.28-1.67h0v5.79h-1.91Zm1.91,2.84a3.89,3.89,0,0,0,.09.79,3,3,0,0,0,2.9,2.26c2.05,0,3.24-1.67,3.24-4.11,0-2.13-1.13-4-3.17-4a3.09,3.09,0,0,0-2.93,2.4,3,3,0,0,0-.13.79Z" transform="translate(-115.27 -114.29)"/><path class="cls-2" d="M314.38,236a3.4,3.4,0,0,0,3.65,3.69,7,7,0,0,0,3-.55l.33,1.39a8.59,8.59,0,0,1-3.54.66c-3.28,0-5.24-2.16-5.24-5.37s1.89-5.74,5-5.74c3.47,0,4.4,3.06,4.4,5a7.67,7.67,0,0,1-.07.91Zm5.68-1.39c0-1.23-.51-3.15-2.69-3.15-1.95,0-2.81,1.81-3,3.15Z" transform="translate(-115.27 -114.29)"/><path class="cls-2" d="M324.32,233.67c0-1.25,0-2.33-.08-3.32h1.69l.07,2.09h.08a3.2,3.2,0,0,1,2.95-2.33,2.26,2.26,0,0,1,.55.06V232a3.11,3.11,0,0,0-.66-.07,2.72,2.72,0,0,0-2.59,2.49,4.89,4.89,0,0,0-.09.9V241h-1.92Z" transform="translate(-115.27 -114.29)"/><path class="cls-2" d="M334.55,241.88l6.14-15.95h1.5L336,241.88Z" transform="translate(-115.27 -114.29)"/><path class="cls-2" d="M353.78,235.76,343.57,241v-1.52l8.67-4.31v0l-8.67-4.31v-1.52l10.21,5.24Z" transform="translate(-115.27 -114.29)"/></svg>