<?xml version="1.0" encoding="UTF-8"?>
<svg width="12px" height="13px" viewBox="0 0 12 13" version="1.1" xmlns="http://www.w3.org/2000/svg" xmlns:xlink="http://www.w3.org/1999/xlink">
    <title>Combined Shape</title>
    <g id="Navigation" stroke="none" stroke-width="1" fill="none" fill-rule="evenodd">
        <g id="Project-details-carousel" transform="translate(-790.000000, -1215.000000)" fill="#3B44C6">
            <g id="Links" transform="translate(247.000000, 1205.000000)">
                <g id="Site-link" transform="translate(412.000000, 2.000000)">
                    <g id="Icon-/-arrow" transform="translate(137.000000, 14.500000) rotate(-270.000000) translate(-137.000000, -14.500000) translate(130.500000, 8.500000)">
                        <path d="M6.5,0.25 C6.91421356,0.25 7.25,0.585786438 7.25,1 L7.24999687,9.478 L11.4071653,5.46075872 C11.677906,5.19904274 12.0949201,5.18190124 12.3847975,5.40470017 L12.4676732,5.47873343 C12.7293892,5.7494741 12.7465307,6.16648816 12.5237317,6.45636557 L12.4496985,6.53924128 L7.09255564,11.7178127 C6.83460004,11.9671698 6.44164714,11.995698 6.1527799,11.801058 L6.0606738,11.7279093 L0.48938474,6.54933783 C0.185993832,6.26733281 0.168657145,5.79277565 0.450662166,5.48938474 C0.707030367,5.21357482 1.12253257,5.17417335 1.42390176,5.38116342 L1.51061526,5.45066217 L5.74999687,9.39 L5.75,1 C5.75,0.585786438 6.08578644,0.25 6.5,0.25 Z" id="Combined-Shape" transform="translate(6.464215, 6.089286) rotate(-180.000000) translate(-6.464215, -6.089286) "></path>
                    </g>
                </g>
            </g>
        </g>
    </g>
</svg>