<?xml version="1.0" encoding="UTF-8"?>
<svg width="30px" height="25px" viewBox="0 0 30 25" version="1.1" xmlns="http://www.w3.org/2000/svg" xmlns:xlink="http://www.w3.org/1999/xlink">
    <title>Visit site</title>
    <g id="Navigation" stroke="none" stroke-width="1" fill="none" fill-rule="evenodd">
        <g id="Projects-listing" transform="translate(-893.000000, -412.000000)">
            <g id="Content" transform="translate(735.000000, 187.000000)">
                <g id="Links" transform="translate(0.000000, 221.000000)">
                    <g id="Site-link" transform="translate(158.000000, 2.000000)">
                        <g id="Visit-site" transform="translate(0.000000, 2.000000)">
                            <path d="M1.33333333,23 C1.33333333,23.3666667 1.63333333,23.6666667 2,23.6666667 L28,23.6666667 C28.3666667,23.6666667 28.6666667,23.3666667 28.6666667,23 L28.6666667,5.36666667 L1.33333333,5.36666667 L1.33333333,23 Z M12.0333333,7.73333333 L20.2666667,15.3666667 L16.5666667,15.2666667 L18.4333333,19.5 C18.6666667,20.0666667 18.4,20.7666667 17.8333333,21 C17.2666667,21.2333333 16.6,20.9666667 16.3333333,20.4 L14.5,16.2 L11.9666667,18.9666667 L12.0333333,7.73333333 Z" id="Shape"></path>
                            <path d="M2.93333333,2.06666667 C2.53333333,2.06666667 2.23333333,2.36666667 2.23333333,2.76666667 C2.23333333,3.16666667 2.56666667,3.46666667 2.93333333,3.46666667 C3.33333333,3.46666667 3.63333333,3.16666667 3.63333333,2.76666667 C3.63333333,2.36666667 3.33333333,2.06666667 2.93333333,2.06666667 Z" id="Path" fill="#000000" fill-rule="nonzero"></path>
                            <path d="M4.86666667,2.06666667 C4.46666667,2.06666667 4.16666667,2.36666667 4.16666667,2.76666667 C4.16666667,3.16666667 4.46666667,3.46666667 4.86666667,3.46666667 C5.26666667,3.46666667 5.56666667,3.16666667 5.56666667,2.76666667 C5.56666667,2.36666667 5.26666667,2.06666667 4.86666667,2.06666667 Z" id="Path" fill="#000000" fill-rule="nonzero"></path>
                            <path d="M16.3333333,20.4 C16.6,20.9666667 17.2666667,21.2333333 17.8333333,21 C18.4,20.7666667 18.6666667,20.0666667 18.4333333,19.5 L16.5666667,15.2666667 L20.2666667,15.3666667 L12.0333333,7.73333333 L11.9666667,18.9666667 L14.5,16.2 L16.3333333,20.4 Z" id="Path" fill="#3B44C6" fill-rule="nonzero"></path>
                            <path d="M28,-4.26325641e-14 L2,-4.26325641e-14 C0.9,-4.26325641e-14 0,0.9 0,2 L0,23 C0,24.1 0.9,25 2,25 L28,25 C29.1,25 30,24.1 30,23 L30,2 C30,0.9 29.1,-4.26325641e-14 28,-4.26325641e-14 Z M28.6666667,23 C28.6666667,23.3666667 28.3666667,23.6666667 28,23.6666667 L2,23.6666667 C1.63333333,23.6666667 1.33333333,23.3666667 1.33333333,23 L1.33333333,5.36666667 L28.6666667,5.36666667 L28.6666667,23 Z M28.6666667,4.03333333 L1.33333333,4.03333333 L1.33333333,2 C1.33333333,1.63333333 1.63333333,1.33333333 2,1.33333333 L28,1.33333333 C28.3666667,1.33333333 28.6666667,1.63333333 28.6666667,2 L28.6666667,4.03333333 Z" id="Shape" fill="#3B44C6" fill-rule="nonzero"></path>
                            <path d="M6.8,2.06666667 C6.4,2.06666667 6.1,2.36666667 6.1,2.76666667 C6.1,3.16666667 6.4,3.46666667 6.8,3.46666667 C7.2,3.46666667 7.5,3.16666667 7.5,2.76666667 C7.5,2.36666667 7.2,2.06666667 6.8,2.06666667 Z" id="Path" fill="#000000" fill-rule="nonzero"></path>
                            <path d="M2.93333333,3.46666667 C2.56666667,3.46666667 2.23333333,3.16666667 2.23333333,2.76666667 C2.23333333,2.36666667 2.53333333,2.06666667 2.93333333,2.06666667 C3.33333333,2.06666667 3.63333333,2.36666667 3.63333333,2.76666667 C3.63333333,3.16666667 3.33333333,3.46666667 2.93333333,3.46666667 Z M4.86666667,3.46666667 C4.46666667,3.46666667 4.16666667,3.16666667 4.16666667,2.76666667 C4.16666667,2.36666667 4.46666667,2.06666667 4.86666667,2.06666667 C5.26666667,2.06666667 5.56666667,2.36666667 5.56666667,2.76666667 C5.56666667,3.16666667 5.26666667,3.46666667 4.86666667,3.46666667 Z M6.8,3.46666667 C6.4,3.46666667 6.1,3.16666667 6.1,2.76666667 C6.1,2.36666667 6.4,2.06666667 6.8,2.06666667 C7.2,2.06666667 7.5,2.36666667 7.5,2.76666667 C7.5,3.16666667 7.2,3.46666667 6.8,3.46666667 Z" id="Shape" fill="#3B44C6" fill-rule="nonzero"></path>
                        </g>
                    </g>
                </g>
            </g>
        </g>
    </g>
</svg>