<?xml version="1.0" encoding="UTF-8"?>
<svg width="36px" height="30px" viewBox="0 0 36 30" version="1.1" xmlns="http://www.w3.org/2000/svg" xmlns:xlink="http://www.w3.org/1999/xlink">
    <title>Site</title>
    <g id="Pages" stroke="none" stroke-width="1" fill="none" fill-rule="evenodd">
        <g id="Projects-listing" transform="translate(-308.000000, -850.000000)" fill="#3B44C6" stroke="#3B44C6" stroke-width="2">
            <g id="Content" transform="translate(150.000000, 629.000000)">
                <g id="Links" transform="translate(0.000000, 221.000000)">
                    <g id="Site-link" transform="translate(158.000000, 0.000000)">
                        <path d="M1,9.287 L0.899103506,9.19455275 C1.18023823,9.47568748 1.58159066,9.68680584 2.09750115,9.73334164 L14.074,9.73 L13.9846133,24.8230172 L17.2321587,21.2763558 L18.4549859,24.0777419 C18.6987353,24.6057347 19.1304532,24.9942142 19.632776,25.1951434 C20.1402799,25.3981449 20.7175023,25.4095447 21.2474165,25.1913448 C21.7819105,24.971259 22.1847013,24.5392072 22.392807,24.0189429 C22.5997565,23.5015691 22.6090302,22.9042644 22.385835,22.3726661 L21.1525087,19.5756582 L25.9264044,19.7046824 L15.168,9.73 L34.0920262,9.72647248 C34.4319934,9.6962349 34.7443116,9.56921758 35.0006439,9.37275198 L35,27 C35,27.5522847 34.7761424,28.0522847 34.4142136,28.4142136 C34.0522847,28.7761424 33.5522847,29 33,29 L33,29 L3,29 C2.44771525,29 1.94771525,28.7761424 1.58578644,28.4142136 C1.22385763,28.0522847 1,27.5522847 1,27 L1,27 L1,9.287 Z M8.5,1 C7.80964406,1 7.18464406,1.27982203 6.73223305,1.73223305 C6.27982203,2.18464406 6,2.80964406 6,3.5 C6,4.19035594 6.27982203,4.81535594 6.73223305,5.26776695 C7.18464406,5.72017797 7.80964406,6 8.5,6 C9.19035594,6 9.81535594,5.72017797 10.267767,5.26776695 C10.720178,4.81535594 11,4.19035594 11,3.5 C11,2.80964406 10.720178,2.18464406 10.267767,1.73223305 C9.82043177,1.28489786 9.2043586,1.00630066 8.52321154,1.00010552 L13.5,1 C12.8096441,1 12.1846441,1.27982203 11.732233,1.73223305 C11.279822,2.18464406 11,2.80964406 11,3.5 C11,4.19035594 11.279822,4.81535594 11.732233,5.26776695 C12.1846441,5.72017797 12.8096441,6 13.5,6 C14.1903559,6 14.8153559,5.72017797 15.267767,5.26776695 C15.720178,4.81535594 16,4.19035594 16,3.5 C16,2.80964406 15.720178,2.18464406 15.267767,1.73223305 C14.8204318,1.28489786 14.2043586,1.00630066 13.5232115,1.00010552 L33,1 C33.5522847,1 34.0522847,1.22385763 34.4142136,1.58578644 C34.7761424,1.94771525 35,2.44771525 35,3 L35,3 L35.0016728,6.59464483 C34.7066544,6.36803875 34.337363,6.23333059 33.9366088,6.23333059 L1.99343336,6.2401887 C1.61469358,6.27387482 1.27026913,6.42767453 0.999339847,6.66379806 L1,3 C1,2.44771525 1.22385763,1.94771525 1.58578644,1.58578644 C1.94771525,1.22385763 2.44771525,1 3,1 L3,1 L3.5,1 C2.80964406,1 2.18464406,1.27982203 1.73223305,1.73223305 C1.27982203,2.18464406 1,2.80964406 1,3.5 C1,4.19035594 1.27982203,4.81535594 1.73223305,5.26776695 C2.18464406,5.72017797 2.80964406,6 3.5,6 C4.19035594,6 4.81535594,5.72017797 5.26776695,5.26776695 C5.72017797,4.81535594 6,4.19035594 6,3.5 C6,2.80964406 5.72017797,2.18464406 5.26776695,1.73223305 C4.82043177,1.28489786 4.2043586,1.00630066 3.52321154,1.00010552 L8.5,1 Z" id="Site"></path>
                    </g>
                </g>
            </g>
        </g>
    </g>
</svg>